<svg xmlns="http://www.w3.org/2000/svg" xmlns:xlink="http://www.w3.org/1999/xlink" id="Group_293" data-name="Group 293" width="107.873" height="86.919" viewBox="0 0 107.873 86.919"><defs><clipPath id="clip-path"><rect id="Rectangle_1973" data-name="Rectangle 1973" width="107.873" height="86.919" fill="none"></rect></clipPath></defs><rect id="Rectangle_1965" data-name="Rectangle 1965" width="0.469" height="19.72" transform="translate(36.74 67.199)" fill="#ed1c24"></rect><rect id="Rectangle_1966" data-name="Rectangle 1966" width="5.404" height="19.72" transform="translate(42.623 67.199)" fill="#1a1818"></rect><rect id="Rectangle_1967" data-name="Rectangle 1967" width="5.338" height="16.001" transform="translate(50.538 67.199)" fill="#1a1818"></rect><g id="Group_290" data-name="Group 290"><g id="Group_289" data-name="Group 289" clip-path="url(#clip-path)"><path id="Path_5893" data-name="Path 5893" d="M272.421,317.415h9.863v4.222c0,2.7-.06,3.77-2.262,3.77h-.241v3.831h.98c4.766,0,6.892-1.493,6.892-7.706v-8.295H272.421Z" transform="translate(-213.978 -246.038)" fill="#1a1818"></path><rect id="Rectangle_1968" data-name="Rectangle 1968" width="5.007" height="12.958" transform="translate(58.624 73.956)" fill="#1a1818"></rect><path id="Path_5894" data-name="Path 5894" d="M361.755,313.237h-7.194v8.657h4.509v-4.736h.92c2.353,0,3.318-.091,3.318,3.062v1.915c0,3.182-1.432,2.956-3.529,2.956h-5.188v4.148h7.164c4.163,0,6.334-2.067,6.334-6.395v-3.182c0-4.359-2.006-6.425-6.334-6.425" transform="translate(-278.496 -246.038)" fill="#1a1818"></path><path id="Path_5895" data-name="Path 5895" d="M442.588,318.243v-5.006H437.6v5.218c0,1.583-.256,2.232-.965,2.262l-4.389-7.48H426.9l3.333,5.1c-3.031.378-4.1,2.594-4.1,5.128v5.776h4.871v-6.772c0-1.071.588-1.327.965-1.357l4.57,8.129h5.6l-3.891-6.183c2.715-.332,4.343-1.689,4.343-4.812" transform="translate(-334.715 -246.038)" fill="#1a1818"></path><path id="Path_5896" data-name="Path 5896" d="M209.074,188.856A10.648,10.648,0,1,0,219.722,199.5a10.648,10.648,0,0,0-10.648-10.648" transform="translate(-155.857 -148.34)" fill="#ed1c24"></path><path id="Path_5897" data-name="Path 5897" d="M288.317,0,274.77,23.327l21.843,38.138h26.819Z" transform="translate(-215.823 0)" fill="#ed1c24"></path><path id="Path_5898" data-name="Path 5898" d="M3.385,313.4H.421v.8h.621v4.146H0v.783H1.959v-4.988H3.32c.847,0,1.026.707,1.026,1.549v3.439h.972v-3.25c0-1.458-.373-2.478-1.933-2.478" transform="translate(0 -246.163)" fill="#ed1c24"></path><path id="Path_5899" data-name="Path 5899" d="M29.142,319.125h4.4l-1.479-2.257a1.708,1.708,0,0,0,1.5-1.689V313.4h-.94v1.8a1,1,0,0,1-.917,1.075l-1.89-2.878h-1.1l3.3,4.945H29.142Z" transform="translate(-22.559 -246.163)" fill="#ed1c24"></path><rect id="Rectangle_1969" data-name="Rectangle 1969" width="1.015" height="5.728" transform="translate(12.506 67.234)" fill="#ed1c24"></rect><path id="Path_5900" data-name="Path 5900" d="M73.576,313.4H69.694v.8h2.888v4.146H69.694v.783h4.585v-.783h-.7Z" transform="translate(-54.743 -246.164)" fill="#ed1c24"></path><path id="Path_5901" data-name="Path 5901" d="M95.707,314.2H99.47v1.949c0,1.976-.524,2.24-1.625,2.24h-.081v.74H97.9c1.6,0,2.564-.621,2.564-2.829v-2.9H95.707Z" transform="translate(-75.175 -246.164)" fill="#ed1c24"></path><rect id="Rectangle_1970" data-name="Rectangle 1970" width="0.907" height="4.886" transform="translate(20.743 69.355)" fill="#ed1c24"></rect><path id="Path_5902" data-name="Path 5902" d="M126.1,313.4h-2.521v.8h.95l-1.08,4.928h.972l1.042-4.988h.68c.977,0,1.2.653,1.2,1.571v2.65h-1.571v.767h2.521v-2.942c0-1.868-.464-2.785-2.192-2.785" transform="translate(-96.963 -246.163)" fill="#ed1c24"></path><rect id="Rectangle_1971" data-name="Rectangle 1971" width="0.972" height="3.142" transform="translate(8.697 80.058)" fill="#ed1c24"></rect><path id="Path_5903" data-name="Path 5903" d="M40.337,361.92h3.428v4.929h.972V361.12h-4.4Z" transform="translate(-31.684 -283.649)" fill="#ed1c24"></path><path id="Path_5904" data-name="Path 5904" d="M70.223,361.12H67.7v.8h.95l-1.08,4.928h.972l1.042-4.988h.68c.977,0,1.2.653,1.2,1.571v2.65H69.894v.767h2.521v-2.942c0-1.868-.464-2.785-2.192-2.785" transform="translate(-53.076 -283.648)" fill="#ed1c24"></path><path id="Path_5905" data-name="Path 5905" d="M95.244,355.735H94.38v1.971h2.932l-1.771,4.929h.972l2.1-5.728H95.244Z" transform="translate(-74.132 -279.419)" fill="#ed1c24"></path><path id="Path_5906" data-name="Path 5906" d="M123.815,364.192a1.732,1.732,0,0,1-1.949,1.992h-1.5L119.9,361.2h-.929l.529,5.728h2.478c1.8,0,2.775-.972,2.775-2.953V361.2h-.94Z" transform="translate(-93.45 -283.708)" fill="#ed1c24"></path><rect id="Rectangle_1972" data-name="Rectangle 1972" width="0.88" height="3.606" transform="translate(28.012 77.488)" fill="#ed1c24"></rect><path id="Path_5907" data-name="Path 5907" d="M85.644,353.472a.588.588,0,1,1-.588-.588.588.588,0,0,1,.588.588" transform="translate(-66.346 -277.179)" fill="#1a1818"></path></g></g></svg>