<?xml version="1.0" encoding="UTF-8"?><svg id="uuid-f86cea87-a3fa-484b-9d1c-a6f610c49696" xmlns="http://www.w3.org/2000/svg" width="133.43" height="61.23" xmlns:xlink="http://www.w3.org/1999/xlink" viewBox="0 0 133.43 61.23"><defs><clipPath id="uuid-17e2006d-505a-4623-aaaf-8a33613d3e9a"><rect y="0" width="133.43" height="61.23" fill="none" stroke-width="0"/></clipPath></defs><g clip-path="url(#uuid-17e2006d-505a-4623-aaaf-8a33613d3e9a)"><path d="M43.54,33.58h7.49v11.03h-7.49v-11.03ZM55.51,44.61v-13.19c0-1.22-.45-1.87-1.87-1.87h-10.09v-5.74h13.27c4.19,0,6.27,1.55,6.27,6.23v14.57h-7.57Z" fill="#004482" stroke-width="0"/><path d="M77.62,44.61h-12.05v-5.58h9.61c1.55,0,2.97-.9,2.97-5.01s-.85-5.49-3.21-5.49c-2.12,0-2.81.85-2.81,1.87,0,1.3.69,1.59,1.71,1.59h.73v4.23h-4.23c-4.15,0-5.86-2.4-5.86-5.62,0-5.33,3.62-7.53,10.14-7.53s11.27,2.4,11.27,10.75c0,7.41-3.09,10.79-8.26,10.79" fill="#004482" stroke-width="0"/><path d="M89.35,37.08v-6.47c0-.77-.33-1.06-1.06-1.06h-1.63v-5.74h6.19c2.89,0,4.11,1.63,4.11,4.03v9.24h-7.61Z" fill="#004482" stroke-width="0"/><path d="M111.21,44.61v-13.96c0-.77-.24-1.18-1.18-1.18h-2.64c-.94,0-1.14.37-1.14,1.18v13.96h-7.53v-16.04c0-3.66,1.51-4.84,4.64-4.84h10.38c3.13,0,5.01,1.59,5.01,5.25v15.63h-7.53Z" fill="#004482" stroke-width="0"/><path d="M49.07,21.06v-4.84c0-.54-.25-.83-.77-.83h-1.41c-.25,0-.21.12-.21.37v3.32c0,1.27-.69,1.98-1.91,1.98h-1.14v-1.4h.58c.25,0,.58-.19.58-.5v-2.21c0-.94.28-1.33.59-1.56h-1.3v-1.4h4.86c1.42,0,2.02.76,2.02,2.14v4.92h-1.9ZM52.76,18.33v-2.5c0-.3-.07-.44-.41-.44h-.55v-1.4h1.69c.93,0,1.18.62,1.18,1.09v3.25h-1.9ZM56.45,18.33v-2.5c0-.3-.07-.44-.42-.44h-.55v-1.4h1.69c.93,0,1.18.62,1.18,1.09v3.25h-1.89ZM62.29,21.06v-4.9c0-.54-.29-.77-.79-.77h-2.32v-1.4h3.21c1.13,0,1.8.59,1.8,1.84v5.23h-1.9ZM65.98,18.33v-2.5c0-.3-.07-.44-.42-.44h-.55v-1.4h1.69c.93,0,1.18.62,1.18,1.09v3.25h-1.9ZM72,21.06h-3.43v-1.4h1.92c-.5-1.11-1.45-4.15-1.76-5.67h1.94c.25,1.06,1.26,4.79,1.55,5.67.86-.17,1.08-.82,1.08-1.69v-3.98h1.9v3.71c0,2.02-1.16,3.36-3.2,3.36" fill="#004482" stroke-width="0"/><path d="M124.77,14.51s-3.63-2.8-5.88-4.16c-2.12-1.28-5.8-3.26-9.95-3.25-5.51.02-8.41,2.32-11.04,4.51-1.89,1.57-9.72,10.15-9.72,10.15h6.97s3.07-4.04,5.57-6.49c2.64-2.58,4.81-3.66,7.83-3.73,4.7-.11,9.43,3.59,12.79,5.81,1.41-1.08,3.44-2.83,3.44-2.83" fill="#8dc63f" stroke-width="0"/><path d="M111.06,18.6l2.53-3.91s8,3.92,10.89,8.51c2.95,4.67,4.51,11.96,4.51,11.96h-5.09s-2.02-7.33-3.72-9.76c-3.1-4.41-7.61-5.81-9.11-6.81" fill="#004482" stroke-width="0"/><path d="M129.26,4.1c-.09,1.83-.36,5.96-1.05,7.7-1.64,4.14-5.04,6.07-6.06,7.16l3.41,2.2s5.17-4.07,6.61-8.32c.93-2.74,1.19-6.22,1.26-8.42l-4.17-.32Z" fill="#00aeef" stroke-width="0"/><polyline points="4.45 15.05 34.11 15.98 34.7 45.13 33.28 47.39 31.86 47.89 29.73 48.89 27.89 49.5 27.14 49.36 25.72 49.61 23.59 50.14 22.34 50.47 20.75 51.9 19.36 52.17 18.63 51.65 17.68 50.9 16.79 50.31 15.08 49.89 13.66 49.89 11.5 49.24 10.7 49.06 8.7 48.39 7.52 47.64 6.34 47.39 4.92 46.38" fill="#fff" stroke-width="0"/><polyline points="19.34 22.12 31.61 41.54 27.21 42.19 23.68 42.48 21.27 43.35 19.24 44.34 17.27 43.35 13.96 41.94 11.27 42.19 6.96 41.62" fill="#fff" stroke-width="0"/><path d="M32.62.91c-1.4-.4-2.32-.41-3.73-.07-1.79.43-3.82,2.57-3.99,2.52.08-.32.5-1.04.6-1.76.09-.62-.02-1.6-.02-1.6-1.46.21-2.36.71-3.31,1.83-.92,1.09-.67,2.06-1.41,3.3h-2.2c-.3.56-.56,1.14-1.24,1.22-.68.09-1.26-.25-1.51-.88,0,0-1.11.28-2,.48,0,.78-.26,1.1-.83,1.36-.63.29-1.29.13-1.72-.41l-1.73,1.05.78,1.08c3.29-1.58,5.49-2.07,9.14-2.06,3.59.01,5.74.51,8.97,2.06l.78-1.08-1.69-1.05c-.39.53-1.05.69-1.65.41-.55-.26-1.02-.98-.76-1.36l-1.65-.27s-1.21,1.24-1.58.68c-.21-.31,0-.95,0-.95.6-.62,1.56-.88,2.43-.96,1.56-.15-.16,1.5,3.35,2.18,2.15.42,4.15-.06,6.03-.88-1.26-.98-2.9-1.49-4.51-1.64,0,0,1.27-.53,1.93-1.09.77-.66,1.14-1.17,1.53-2.1M24.76.84c.02.83-.14,1.36-.62,2.04-.52.75-1.04,1.11-1.93,1.36.07-.88.28-1.41.83-2.11.51-.66.94-.98,1.72-1.29M26.13,4.79c.99-.22,1.6-.25,2.62-.14,1.21.14,1.9.36,2.95.95-.96.36-1.59.27-2.62.34-2,.13-1.97-.41-2.96-1.16M31.25,1.56c-.5.77-.93,1.17-1.74,1.6-1.01.53-1.76.65-2.89.48.54-.99,1.13-1.5,2.2-1.9.89-.33,1.51-.38,2.43-.17" fill="#004482" stroke-width="0"/><path d="M13.46,12.4s.98-1.14,1.79-1.7c.17.11.96-.42.96-.21,0,1.1-2.96,2.58-2.75,1.91M17.04,11.86c-.18.18-1.78.9-2,1.02l-.34-.07c.13-.21,1.32-1.09,1.58-1.09.21,0,.54.14.76.14M21.02,10.18c.97.08,2.51.65,2.51.65-1.09,1.27-1.74,1.75-3.18,1.9-.88.09-1.68-.12-2.24-.34,1.55-.54,2.31-.93,2.91-2.22M8.59,13.67c.7,0,1.4,0,2.1-.04l.71-.07s-.02.02-.03.03c.39-.03.78-.08,1.16-.14.18-.03.34,0,.47.09.24-.19.54-.31,1.01-.31.41,0,3.26.76,5.35.61,3.08-.22,4.94-.88,7.46-2.65-2.65-1.37-4.46-1.8-7.46-1.78-3.02.02-4.84.48-7.48,1.91,0,0,.56.32.83.81-1.46.75-2.51.95-4.12,1.32v.23Z" fill="#004482" stroke-width="0"/><path d="M34.11,43.27c0,3.13-3.13,5.06-6.21,5.76-2.16.49-3.57.46-5.55,1.44-1.12.56-1.88.93-2.97,1.7-.91-.84-1.72-1.41-2.58-1.85-2.17-1.12-2.89-1.02-5.29-1.55-2.76-.6-6.21-1.52-6.21-4.33V15.98h28.82v27.29ZM12.16,14.02c-.11,0-.19-.06-.26-.12-1.3.14-2.6.15-3.91.15-.07,0-.14-.01-.19-.03h-3.7v30.16c0,3.3,3.34,4.74,6.61,5.36,2.45.46,3.92.75,6.08,1.96,1.09.6,1.67,1.09,2.58,1.96.97-.82,1.6-1.26,2.71-1.83,2.25-1.18,3.82-1.29,6.34-1.7,3.6-.59,6.88-2.66,6.88-6.26V14.02H12.16Z" fill="#004482" stroke-width="0"/><path d="M13.67,18.92c-.39-.38-.75-.44-1.14-.82-.33-.32-.4-.62-.75-.92-.25.34-.41.63-.75.96-.34.35-.56.46-.99.78,0,0,.35.59.53.98-.28.2-.44.39-.79.39h-3.17v.91h3.31c.3,0,.43.21.66.39-.2.15-.31.24-.53.39h-3.44v.78h3.57c.1.13.2.24.26.39l-.26.26h-3.57v.39c2.21,0,3.27,1.43,5.49,1.43.66,0,1.39-.32,1.39-.98,0-.41-.46-.5-.66-.85.23-.23.52-.38.52-.72,0-.39-.66-.39-.66-.78,0-.41.66-.53.53-.92-.33-.96-.25-1.26.46-2.09M12.56,18.85c-.2.32-.4.65-.79.65-.36,0-.48-.36-.66-.65.23-.2.33-.52.66-.52.36,0,.53.31.79.52" fill="#004482" stroke-width="0"/><path d="M28.55,23.42l-.26-.26c.07-.15.16-.26.26-.39h3.57v-.78h-3.44c-.22-.15-.33-.25-.53-.39.23-.18.36-.39.66-.39h3.3v-.91h-3.17c-.35,0-.51-.2-.79-.39.18-.39.53-.98.53-.98-.43-.32-.64-.43-.99-.78-.33-.34-.49-.62-.75-.97-.35.3-.41.6-.75.92-.39.38-.75.45-1.14.82.7.83.79,1.13.45,2.09-.13.39.53.5.53.92s-.66.39-.66.78c0,.34.3.49.53.72-.2.34-.66.44-.66.85,0,.65.73.98,1.39.98,2.21,0,3.27-1.43,5.48-1.43v-.39h-3.57ZM27.63,18.85c-.18.29-.3.65-.66.65-.4,0-.59-.33-.79-.65.26-.21.43-.52.79-.52.33,0,.43.33.66.52" fill="#004482" stroke-width="0"/><path d="M19.45,7.71c3.41-.02,5.47.45,8.54,1.94l-.55.71c-2.89-1.45-5.71-1.9-8.07-1.9-3.25,0-5.26.48-8.17,1.97l-.35-.64c3.08-1.56,5.15-2.06,8.62-2.08" fill="#004482" stroke-width="0"/><path d="M10.46,43.36c3.46-.24,5.12,2.31,8.59,2.31s5.12-2.55,8.59-2.31c1.78.12,2.81.37,4.45,1.08l-.24.61c-1.55-.68-2.52-.94-4.22-1.08-3.46-.29-5.12,2.31-8.59,2.31s-5.13-2.6-8.59-2.31c-1.69.14-2.67.39-4.21,1.08l-.24-.61c1.64-.71,2.67-.96,4.45-1.08" fill="#004482" stroke-width="0"/><path d="M10,45.2c3.73-.46,5.61,2.24,9.37,2.24s5.64-2.7,9.37-2.24c1.26.15,1.97.32,3.15.77-2.52,1.29-3.78.76-6.27,1.54-2.39.75-3.94,1.55-6.25,2.94-2.3-1.39-3.62-2.38-6.25-2.94-2.47-.52-2.98-.15-6.27-1.54,1.18-.45,1.89-.62,3.15-.77" fill="#004482" stroke-width="0"/><path d="M23.77,27.55l-.85-1.36c2.35-.55,2.66.9,4.98.9.86,0,1.48-.24,2.17-.54,1.26-.56,1.95-.55,2.81-.38v-1.08c-2.73-.41-3.18.95-4.98.95-.69,0-1.16-.2-1.73-.44-1.8-.79-2.9-.67-3.85-.35l-2.88-4.57-2.94,4.62c-3.11-.94-3.74.74-5.72.74-.69,0-1.2-.24-1.72-.49-1.17-.54-1.88-.61-2.61-.49v1.06c1.91-.29,2.38.97,4.34.97.95,0,1.6-.28,2.16-.53,1.33-.58,2.2-.56,2.98-.35l-.86,1.35c-1.94-.12-2.65,1.02-4.28,1.02-.69,0-1.2-.24-1.72-.49-1.17-.54-1.88-.61-2.61-.49v1.06c1.91-.29,2.38.97,4.34.97.95,0,1.6-.28,2.16-.53.54-.24,1-.37,1.42-.44l-8.26,13.02v1.72c1.71-.73,2.94-.96,4.64-1.1,3.46-.29,5.12,2.31,8.58,2.31,2.45,0,5.12-2.51,8.59-2.31,1.89.11,2.99.36,4.73,1.1v-1.8l-8.16-12.94c1.12.21,1.74.97,3.42.97.86,0,1.48-.24,2.17-.54,1.26-.56,1.95-.55,2.81-.38v-1.08c-2.73-.41-3.18.95-4.98.95-.69,0-1.16-.19-1.73-.44-.98-.42-1.75-.58-2.4-.59M24.25,30.9l-1.14.38v.53c.54.12,1.27.33,2.23.68,3.15,1.16.42,4.8-.12,5.47l3.39.11-4.28,1.02c.63,2.53-2.38,4.78-4.88,4.78s-3.4-1.34-5.81-1.82l.12-3.61c-.87-.39-2.23-.71-2.85-.85l-.34-.03,2.54-2.2c.85-1.03.36-3.43.36-3.43,0,0,.4.02.93.1v-1.56s1.45.51,1.45.51l-1.03.43v.68c.51.09,1.06.23,1.45.45.19.1.31.33.4.62.53-.6.76-1.15.84-2,.09-.99-.67-2.46-.67-2.46,0,0,1.11-.09,2.18.06v-2.98h.35l1.47.51-1.47.61v1.91c.47.1.91.25,1.21.49.69.57,1.19,1.95,1.19,1.95,0,0,.04.17.05.43.18-.03.48-.03.93.04v-1.4s1.5.56,1.5.56Z" fill="#004482" stroke-width="0"/><path d="M13.26,35.62l-2.3,1.92,2.82.11c.12-.44.22-.89.62-1.02v-.84c-.41-.08-.84-.13-1.14-.16" fill="#004482" stroke-width="0"/><path d="M15.78,39.77s1.83.35,3.23.24v-2.02c-.7-.22-1.47-.24-2.33-.24.84-1.59.72-2.77.62-3.42l-.51-.24c.05,1.13-.17,2.43-.17,2.43,0,0-.95-.43-1.6-.61l-.21-.05v.73c1.08.16.93,1.94.97,3.18" fill="#004482" stroke-width="0"/><path d="M19.36,39.98l.12-.02c.58-.1,1.09-.22,1.55-.38-.5-.74-1.06-1.18-1.67-1.45v1.85Z" fill="#004482" stroke-width="0"/><path d="M21.61,39.34c.39-.18.77-.4,1.14-.67v-2.95c-.23,0-.44,0-.63,0,0,.93-.24,2.69-.5,3.62" fill="#004482" stroke-width="0"/><path d="M23.11,38.4c.18-.15.38-.31.57-.49l1.12.04c.28-.72.31-1.03-.34-1.72-.26-.29-.8-.42-1.34-.47v2.65Z" fill="#004482" stroke-width="0"/><path d="M16.7,33.31c.03.14.05.28.07.44l.48.21c-.01-.11,0-.18.06-.19.65-.14,1.22-.19,1.71-.17v-.63c-.65.04-1.82.26-2.31.35" fill="#004482" stroke-width="0"/><path d="M19.36,32.97v.65c1.54.17,2.26,1.02,2.58,1.43.2-.33.4-.74.49-1.12.14-.58-.32-1.31-.64-1.74-.05.45-.2,1.02-.6,1.59-.17.23.15-.4-1.81-.8h-.02Z" fill="#004482" stroke-width="0"/><path d="M28.55,55.93v-1.31h9.78c.49,0,.79-.49.79-.98s-.2-.78-.53-1.11c-.05.26-.13.42-.26.66h-13.82c1.14.96,2.43.74,3.77,1.45H10.57c1.6-.74,2.3-.3,3.64-1.45H.92c-.13-.23-.21-.39-.26-.66C.33,52.86,0,53.1,0,53.58s.33,1.06.79,1.06h9.52v1.29H.13v.39c.51.7,1.09,1.02,1.98,1.02h8.2v-1.09h18.1v1.12H10.33v1.69h18.09v-1.7h9.12c.75,0,1.16-.46,1.59-1.04v-.39h-10.57Z" fill="#004482" stroke-width="0"/><polygon points="52.32 57.99 49.45 57.99 49.45 54.46 46.23 54.46 46.23 57.99 43.36 57.99 43.36 49.11 46.23 49.11 46.23 52.26 49.45 52.26 49.45 49.11 52.32 49.11 52.32 57.99" fill="#004482" stroke-width="0"/><path d="M56.97,54.13h1.83l-.8-2.24-.11-.19-.12.19-.8,2.24ZM55.86,50.08c.28-.66.66-1.08,2.03-1.08.85,0,1.61.09,2.03,1.08l3.29,7.9h-3.02l-.7-1.83h-3.2l-.7,1.83h-3.02l3.29-7.9Z" fill="#004482" stroke-width="0"/><rect x="63.46" y="49.11" width="2.87" height="8.88" fill="#004482" stroke-width="0"/><path d="M67.59,57.99v-7.38c0-.37.06-.79.4-1.12.37-.35.84-.38,1.16-.38h6.61v2.16h-4.76c-.13,0-.29.01-.41.13-.1.1-.14.28-.14.47v.62h3.87v2h-3.87v3.5h-2.87Z" fill="#004482" stroke-width="0"/><path d="M78.5,54.13h1.82l-.8-2.24-.11-.19-.11.19-.8,2.24ZM77.39,50.08c.28-.66.66-1.08,2.03-1.08.85,0,1.61.09,2.03,1.08l3.28,7.9h-3.02l-.7-1.83h-3.19l-.7,1.83h-3.02l3.29-7.9Z" fill="#004482" stroke-width="0"/><path d="M93.85,58h-7.56v-12.82c.59,0,2.66,0,2.66,0v10.44s4.9,0,4.9,0v2.38Z" fill="#004482" stroke-width="0"/><path d="M98.26,48.52c0,.3-.09.54-.28.73-.19.19-.43.28-.72.28s-.55-.1-.73-.28c-.19-.19-.28-.43-.28-.73s.09-.55.28-.74c.19-.19.43-.28.73-.28s.54.09.72.28c.19.19.28.43.28.74M97.18,53.05v-1.16h-.92c-.45,0-.84.03-.84.63,0,.53.41.53.84.53h.92ZM100.8,58h-9.16l1.42-2.38h4.13v-.74h-1.86c-.45-.05-.95-.2-1.32-.62-.35-.39-.53-1.02-.53-1.55s.14-1.1.42-1.56c.22-.37.66-.87,1.43-.99.45-.07,1.31-.11,2.04-.12.64,0,1.82,0,2.55,0v5.58h.89v2.38Z" fill="#004482" stroke-width="0"/><path d="M108.12,60.21c0,.3-.09.55-.28.73-.18.19-.43.28-.73.28s-.54-.1-.73-.28c-.19-.19-.28-.43-.28-.73s.09-.55.28-.73c.19-.19.43-.28.73-.28s.55.09.73.28c.19.19.28.43.28.73M105.37,60.21c0,.3-.09.55-.29.73-.19.19-.43.28-.73.28s-.55-.1-.73-.28c-.19-.19-.28-.43-.28-.73s.09-.55.28-.73c.19-.19.43-.28.73-.28s.54.09.73.28c.19.19.29.43.29.73M108.12,58h-9.05l1.42-2.38h3.81c0-1.75,0-3.53,0-3.53h2.68v3.53h1.14v2.38Z" fill="#004482" stroke-width="0"/><path d="M118.52,56.99c-.05.29-.1.59-.4.79-.4.26-.92.22-1.51.22h-10.31l1.42-2.38h7.27c-.63-.76-2.06-2.72-2.45-2.72-.44,0-.75.39-.98.8v-2.11c.41-.61,1.06-1.1,1.6-1.1.45,0,.87-.05,1.38.5.16.17.68.79,1.21,1.4.4.48,2.35,2.53,2.64,3.28.2.51.18.98.13,1.32" fill="#004482" stroke-width="0"/></g></svg>