<svg width="1440" height="5740" viewBox="0 0 1440 5740" fill="none" xmlns="http://www.w3.org/2000/svg">
<g clip-path="url(#clip0_133_2)">
<rect width="1440" height="5740" fill="#060606"/>
<g opacity="0.45">
<mask id="mask0_133_2" style="mask-type:alpha" maskUnits="userSpaceOnUse" x="-127" y="-3" width="1694" height="895">
<rect x="-126.617" y="-2.61663" width="1692.32" height="893.397" fill="url(#paint0_linear_133_2)" stroke="white" stroke-width="0.766739"/>
</mask>
<g mask="url(#mask0_133_2)">
<g opacity="0.45">
<line x1="32.1104" y1="-14.4639" x2="32.1105" y2="902.627" stroke="white" stroke-width="0.766739"/>
<line x1="123.819" y1="-14.4639" x2="123.819" y2="902.627" stroke="white" stroke-width="0.766739"/>
<line x1="215.529" y1="-14.4639" x2="215.529" y2="902.627" stroke="white" stroke-width="0.766739"/>
<line x1="307.238" y1="-14.4639" x2="307.238" y2="902.627" stroke="white" stroke-width="0.766739"/>
<line x1="398.947" y1="-14.4639" x2="398.947" y2="902.627" stroke="white" stroke-width="0.766739"/>
<line x1="490.656" y1="-14.4639" x2="490.656" y2="902.627" stroke="white" stroke-width="0.766739"/>
<line x1="582.364" y1="-14.4639" x2="582.364" y2="902.627" stroke="white" stroke-width="0.766739"/>
<line x1="674.073" y1="-14.4639" x2="674.073" y2="902.627" stroke="white" stroke-width="0.766739"/>
<line x1="765.782" y1="-14.4639" x2="765.782" y2="902.627" stroke="white" stroke-width="0.766739"/>
<line x1="857.492" y1="-14.4639" x2="857.492" y2="902.627" stroke="white" stroke-width="0.766739"/>
<line x1="949.2" y1="-14.4639" x2="949.2" y2="902.627" stroke="white" stroke-width="0.766739"/>
<line x1="1040.91" y1="-14.4639" x2="1040.91" y2="902.627" stroke="white" stroke-width="0.766739"/>
<line x1="1132.62" y1="-14.4639" x2="1132.62" y2="902.627" stroke="white" stroke-width="0.766739"/>
<line x1="1224.33" y1="-14.4639" x2="1224.33" y2="902.627" stroke="white" stroke-width="0.766739"/>
<line x1="1316.04" y1="-14.4639" x2="1316.04" y2="902.627" stroke="white" stroke-width="0.766739"/>
<line x1="1407.75" y1="-14.4639" x2="1407.75" y2="902.627" stroke="white" stroke-width="0.766739"/>
<line x1="1590.78" y1="352.756" x2="-151.693" y2="352.756" stroke="white" stroke-width="0.766739"/>
<line x1="1590.78" y1="719.592" x2="-151.693" y2="719.592" stroke="white" stroke-width="0.766739"/>
<line x1="1590.78" y1="77.6285" x2="-151.692" y2="77.6285" stroke="white" stroke-width="0.766739"/>
<line x1="1590.78" y1="444.465" x2="-151.692" y2="444.465" stroke="white" stroke-width="0.766739"/>
<line x1="1590.78" y1="811.301" x2="-151.692" y2="811.301" stroke="white" stroke-width="0.766739"/>
<line x1="1590.78" y1="169.337" x2="-151.692" y2="169.337" stroke="white" stroke-width="0.766739"/>
<line x1="1590.78" y1="536.173" x2="-151.692" y2="536.173" stroke="white" stroke-width="0.766739"/>
<line x1="1590.78" y1="261.047" x2="-151.692" y2="261.047" stroke="white" stroke-width="0.766739"/>
<line x1="1590.78" y1="627.883" x2="-151.692" y2="627.883" stroke="white" stroke-width="0.766739"/>
</g>
</g>
</g>
<rect x="857.493" y="352.767" width="91.2419" height="91.2419" fill="url(#paint1_linear_133_2)" style="mix-blend-mode:soft-light"/>
<rect x="1132.75" y="536.784" width="91.2419" height="91.2419" fill="url(#paint2_linear_133_2)" style="mix-blend-mode:soft-light"/>
<rect x="307.741" y="536.784" width="91.2419" height="91.2419" fill="url(#paint3_linear_133_2)" style="mix-blend-mode:soft-light"/>
<g clip-path="url(#clip1_133_2)">
<mask id="mask1_133_2" style="mask-type:alpha" maskUnits="userSpaceOnUse" x="-249" y="458" width="1693" height="388">
<path d="M-4.00008 458L1444 458V839C863.605 776.719 546.439 776.668 -4.00008 839C-554.439 901.332 -4.00008 458 -4.00008 458Z" fill="#111111"/>
</mask>
<g mask="url(#mask1_133_2)">
<g style="mix-blend-mode:color-dodge" filter="url(#filter0_f_133_2)">
<path d="M802.926 1121.89C935.002 1135.52 1128.75 1082.76 1235.68 1004.04V1004.04C1342.6 925.32 1322.22 850.457 1190.14 836.828L636.358 779.679C504.282 766.049 310.532 818.814 203.606 897.532V897.532C96.6796 976.25 117.067 1051.11 249.143 1064.74L802.926 1121.89Z" fill="url(#paint4_radial_133_2)"/>
</g>
<g opacity="0.9" filter="url(#filter1_f_133_2)">
<path d="M1084.5 959.349C999.754 1007.85 852.582 1036.75 755.785 1023.9L467.797 985.662C371 972.811 361.235 923.078 445.985 874.579V874.579C530.735 826.08 677.908 797.182 774.705 810.032L1062.69 848.265C1159.49 861.116 1169.25 910.85 1084.5 959.349V959.349Z" fill="url(#paint5_radial_133_2)"/>
</g>
</g>
</g>
<g style="mix-blend-mode:hue" filter="url(#filter2_f_133_2)">
<path d="M-8.19668 22.0111C-38.0128 107.69 -126.412 144.226 -205.642 103.617V103.617C-284.872 63.0074 -324.93 -39.3691 -295.114 -125.048L-293.265 -130.361C-263.449 -216.039 -175.049 -252.575 -95.8194 -211.966V-211.966C-16.5894 -171.357 23.4684 -68.9805 -6.34777 16.6982L-8.19668 22.0111Z" fill="url(#paint6_linear_133_2)" fill-opacity="0.5"/>
</g>
<g filter="url(#filter3_f_133_2)">
<path d="M-362.754 66.1839C-428.347 -29.3311 -418.444 -164.26 -340.637 -235.187L-315.3 -258.283C-237.493 -329.211 -121.243 -309.279 -55.6507 -213.764L-32.8746 -180.598C32.7182 -85.0832 22.8161 49.8453 -54.9917 120.773L-80.328 143.869C-158.136 214.797 -274.385 194.865 -339.978 99.35L-362.754 66.1839Z" fill="url(#paint7_linear_133_2)" fill-opacity="0.5"/>
</g>
<g style="mix-blend-mode:lighten" filter="url(#filter4_f_133_2)">
<rect width="381.989" height="374.148" rx="187.074" transform="matrix(0.354433 -0.942519 0.872333 0.478385 -286.259 50.3857)" fill="url(#paint8_linear_133_2)" fill-opacity="0.5"/>
</g>
<g style="mix-blend-mode:lighten" filter="url(#filter5_f_133_2)">
<rect width="315.854" height="293.176" rx="146.588" transform="matrix(-0.227914 -1.03571 0.908472 -0.219757 -279.723 216.738)" fill="url(#paint9_linear_133_2)" fill-opacity="0.5"/>
</g>
<g style="mix-blend-mode:plus-lighter" opacity="0.5" filter="url(#filter6_f_133_2)">
<path d="M481.518 121.292L977.834 121.292L1440 -18.9997L-0.000108476 -18.9999L481.518 121.292Z" fill="url(#paint10_linear_133_2)"/>
</g>
<g style="mix-blend-mode:plus-lighter" opacity="0.7" filter="url(#filter7_f_133_2)">
<path d="M589.068 121.292L864.684 121.292L1121.34 -18.9997L321.67 -18.9998L589.068 121.292Z" fill="url(#paint11_linear_133_2)"/>
</g>
<g style="mix-blend-mode:plus-lighter" filter="url(#filter8_f_133_2)">
<path d="M644.83 121.292L804.397 121.292L952.985 -18.9997L490.02 -18.9998L644.83 121.292Z" fill="url(#paint12_linear_133_2)"/>
</g>
<g filter="url(#filter9_f_133_2)">
<path d="M996.912 4627.84C1328.42 4513.26 1220 4725.97 1422.14 4746.41C1624.27 4766.86 1779.09 4546.07 1330.2 4379.34C881.309 4212.61 430.392 4823.64 996.912 4627.84Z" fill="#AD232B" fill-opacity="0.3"/>
</g>
<g filter="url(#filter10_f_133_2)">
<path d="M10.5683 2404.35C-115.128 2731.8 101.113 2630.63 114.724 2833.34C128.336 3036.05 -97.5514 3183.32 -249.037 2729.06C-400.523 2274.81 225.375 1844.76 10.5683 2404.35Z" fill="#AD232B" fill-opacity="0.4"/>
</g>
<g filter="url(#filter11_f_133_2)">
<path d="M188.941 4053.09C457.057 4145.74 759.221 3929.29 814.991 4072.56C870.761 4215.84 421.865 4077.34 -0.240521 4296.66C-422.346 4515.97 -269.25 3894.76 188.941 4053.09Z" fill="#AD232B" fill-opacity="0.3"/>
</g>
<g filter="url(#filter12_f_133_2)">
<path d="M1376.73 1216.45C1524.76 974.464 1443.52 902.71 1502.08 901.755C1560.65 900.8 1517.18 1135.95 1574.03 1453.49C1630.88 1771.03 1123.77 1630 1376.73 1216.45Z" fill="#AD232B" fill-opacity="0.4"/>
</g>
<g filter="url(#filter13_f_133_2)">
<path d="M1235.87 2280.21C1506.04 2449.6 1277.27 2499.36 1369.65 2656.85C1462.03 2814.33 1722.24 2793.05 1614.31 2370.51C1506.38 1947.97 774.163 1990.72 1235.87 2280.21Z" fill="#AD232B" fill-opacity="0.3"/>
</g>
</g>
<defs>
<filter id="filter0_f_133_2" x="-73.7312" y="568.755" width="1586.75" height="764.061" filterUnits="userSpaceOnUse" color-interpolation-filters="sRGB">
<feFlood flood-opacity="0" result="BackgroundImageFix"/>
<feBlend mode="normal" in="SourceGraphic" in2="BackgroundImageFix" result="shape"/>
<feGaussianBlur stdDeviation="104.39" result="effect1_foregroundBlur_133_2"/>
</filter>
<filter id="filter1_f_133_2" x="-106.314" y="312.37" width="1743.12" height="1209.19" filterUnits="userSpaceOnUse" color-interpolation-filters="sRGB">
<feFlood flood-opacity="0" result="BackgroundImageFix"/>
<feBlend mode="normal" in="SourceGraphic" in2="BackgroundImageFix" result="shape"/>
<feGaussianBlur stdDeviation="247.305" result="effect1_foregroundBlur_133_2"/>
</filter>
<filter id="filter2_f_133_2" x="-380.531" y="-304.103" width="459.6" height="499.857" filterUnits="userSpaceOnUse" color-interpolation-filters="sRGB">
<feFlood flood-opacity="0" result="BackgroundImageFix"/>
<feBlend mode="normal" in="SourceGraphic" in2="BackgroundImageFix" result="shape"/>
<feGaussianBlur stdDeviation="37.7768" result="effect1_foregroundBlur_133_2"/>
</filter>
<filter id="filter3_f_133_2" x="-484.083" y="-378.709" width="572.538" height="643.004" filterUnits="userSpaceOnUse" color-interpolation-filters="sRGB">
<feFlood flood-opacity="0" result="BackgroundImageFix"/>
<feBlend mode="normal" in="SourceGraphic" in2="BackgroundImageFix" result="shape"/>
<feGaussianBlur stdDeviation="38.9718" result="effect1_foregroundBlur_133_2"/>
</filter>
<filter id="filter4_f_133_2" x="-432.957" y="-441.607" width="755.166" height="802.94" filterUnits="userSpaceOnUse" color-interpolation-filters="sRGB">
<feFlood flood-opacity="0" result="BackgroundImageFix"/>
<feBlend mode="normal" in="SourceGraphic" in2="BackgroundImageFix" result="shape"/>
<feGaussianBlur stdDeviation="100" result="effect1_foregroundBlur_133_2"/>
</filter>
<filter id="filter5_f_133_2" x="-396.271" y="-219.832" width="427.45" height="481.577" filterUnits="userSpaceOnUse" color-interpolation-filters="sRGB">
<feFlood flood-opacity="0" result="BackgroundImageFix"/>
<feBlend mode="normal" in="SourceGraphic" in2="BackgroundImageFix" result="shape"/>
<feGaussianBlur stdDeviation="36.905" result="effect1_foregroundBlur_133_2"/>
</filter>
<filter id="filter6_f_133_2" x="-100" y="-119" width="1640" height="340.292" filterUnits="userSpaceOnUse" color-interpolation-filters="sRGB">
<feFlood flood-opacity="0" result="BackgroundImageFix"/>
<feBlend mode="normal" in="SourceGraphic" in2="BackgroundImageFix" result="shape"/>
<feGaussianBlur stdDeviation="50" result="effect1_foregroundBlur_133_2"/>
</filter>
<filter id="filter7_f_133_2" x="221.67" y="-119" width="999.666" height="340.292" filterUnits="userSpaceOnUse" color-interpolation-filters="sRGB">
<feFlood flood-opacity="0" result="BackgroundImageFix"/>
<feBlend mode="normal" in="SourceGraphic" in2="BackgroundImageFix" result="shape"/>
<feGaussianBlur stdDeviation="50" result="effect1_foregroundBlur_133_2"/>
</filter>
<filter id="filter8_f_133_2" x="390.021" y="-119" width="662.964" height="340.292" filterUnits="userSpaceOnUse" color-interpolation-filters="sRGB">
<feFlood flood-opacity="0" result="BackgroundImageFix"/>
<feBlend mode="normal" in="SourceGraphic" in2="BackgroundImageFix" result="shape"/>
<feGaussianBlur stdDeviation="50" result="effect1_foregroundBlur_133_2"/>
</filter>
<filter id="filter9_f_133_2" x="546.777" y="4165.17" width="1259.09" height="767.567" filterUnits="userSpaceOnUse" color-interpolation-filters="sRGB">
<feFlood flood-opacity="0" result="BackgroundImageFix"/>
<feBlend mode="normal" in="SourceGraphic" in2="BackgroundImageFix" result="shape"/>
<feGaussianBlur stdDeviation="92.5" result="effect1_foregroundBlur_133_2"/>
</filter>
<filter id="filter10_f_133_2" x="-457.962" y="1953.83" width="758.274" height="1259" filterUnits="userSpaceOnUse" color-interpolation-filters="sRGB">
<feFlood flood-opacity="0" result="BackgroundImageFix"/>
<feBlend mode="normal" in="SourceGraphic" in2="BackgroundImageFix" result="shape"/>
<feGaussianBlur stdDeviation="92.5" result="effect1_foregroundBlur_133_2"/>
</filter>
<filter id="filter11_f_133_2" x="-494" y="3776" width="1559.71" height="814.097" filterUnits="userSpaceOnUse" color-interpolation-filters="sRGB">
<feFlood flood-opacity="0" result="BackgroundImageFix"/>
<feBlend mode="normal" in="SourceGraphic" in2="BackgroundImageFix" result="shape"/>
<feGaussianBlur stdDeviation="123" result="effect1_foregroundBlur_133_2"/>
</filter>
<filter id="filter12_f_133_2" x="1059.57" y="655.752" width="764.948" height="1217.32" filterUnits="userSpaceOnUse" color-interpolation-filters="sRGB">
<feFlood flood-opacity="0" result="BackgroundImageFix"/>
<feBlend mode="normal" in="SourceGraphic" in2="BackgroundImageFix" result="shape"/>
<feGaussianBlur stdDeviation="123" result="effect1_foregroundBlur_133_2"/>
</filter>
<filter id="filter13_f_133_2" x="899.572" y="1873.05" width="925.504" height="1058.99" filterUnits="userSpaceOnUse" color-interpolation-filters="sRGB">
<feFlood flood-opacity="0" result="BackgroundImageFix"/>
<feBlend mode="normal" in="SourceGraphic" in2="BackgroundImageFix" result="shape"/>
<feGaussianBlur stdDeviation="92.5" result="effect1_foregroundBlur_133_2"/>
</filter>
<linearGradient id="paint0_linear_133_2" x1="719.546" y1="444.082" x2="719.546" y2="891.164" gradientUnits="userSpaceOnUse">
<stop stop-color="#E9E9E9" stop-opacity="0.75"/>
<stop offset="0.861" stop-color="#E9E9E9" stop-opacity="0"/>
</linearGradient>
<linearGradient id="paint1_linear_133_2" x1="859.476" y1="352.767" x2="948.735" y2="444.009" gradientUnits="userSpaceOnUse">
<stop stop-color="#D9D9D9"/>
<stop offset="1" stop-color="#737373"/>
</linearGradient>
<linearGradient id="paint2_linear_133_2" x1="1134.74" y1="536.784" x2="1223.99" y2="628.026" gradientUnits="userSpaceOnUse">
<stop stop-color="#D9D9D9"/>
<stop offset="1" stop-color="#737373"/>
</linearGradient>
<linearGradient id="paint3_linear_133_2" x1="309.724" y1="536.784" x2="398.983" y2="628.026" gradientUnits="userSpaceOnUse">
<stop stop-color="#D9D9D9"/>
<stop offset="1" stop-color="#737373"/>
</linearGradient>
<radialGradient id="paint4_radial_133_2" cx="0" cy="0" r="1" gradientUnits="userSpaceOnUse" gradientTransform="translate(570.557 999.809) rotate(-164.426) scale(380.938 197.466)">
<stop stop-color="#CA0505"/>
<stop offset="1" stop-color="#CA0505"/>
</radialGradient>
<radialGradient id="paint5_radial_133_2" cx="0" cy="0" r="1" gradientUnits="userSpaceOnUse" gradientTransform="translate(902.98 937.303) rotate(-30.4516) scale(758.136 863.584)">
<stop/>
<stop offset="1" stop-color="#091520" stop-opacity="0"/>
</radialGradient>
<linearGradient id="paint6_linear_133_2" x1="-191.087" y1="-242.917" x2="0.00165339" y2="-156.134" gradientUnits="userSpaceOnUse">
<stop stop-color="#790908"/>
<stop offset="0.545273" stop-color="#CD0303"/>
<stop offset="1" stop-color="#720405"/>
</linearGradient>
<linearGradient id="paint7_linear_133_2" x1="16.144" y1="26.2952" x2="-213.392" y2="157.158" gradientUnits="userSpaceOnUse">
<stop stop-color="#790908"/>
<stop offset="0.545273" stop-color="#CD0303"/>
<stop offset="1" stop-color="#720405"/>
</linearGradient>
<linearGradient id="paint8_linear_133_2" x1="310.8" y1="356.16" x2="64.1722" y2="332.312" gradientUnits="userSpaceOnUse">
<stop stop-color="#790908"/>
<stop offset="0.545273" stop-color="#CD0303"/>
<stop offset="1" stop-color="#720405"/>
</linearGradient>
<linearGradient id="paint9_linear_133_2" x1="256.99" y1="279.081" x2="53.2761" y2="258.295" gradientUnits="userSpaceOnUse">
<stop stop-color="#790908"/>
<stop offset="0.545273" stop-color="#CD0303"/>
<stop offset="1" stop-color="#720405"/>
</linearGradient>
<linearGradient id="paint10_linear_133_2" x1="720" y1="121.292" x2="720" y2="-18.9998" gradientUnits="userSpaceOnUse">
<stop stop-color="#AD232B"/>
<stop offset="0.53" stop-color="#800007"/>
<stop offset="1" stop-color="white"/>
</linearGradient>
<linearGradient id="paint11_linear_133_2" x1="721.503" y1="121.292" x2="721.503" y2="-18.9998" gradientUnits="userSpaceOnUse">
<stop stop-color="#AD232B"/>
<stop offset="0.53" stop-color="#800007"/>
<stop offset="1" stop-color="white"/>
</linearGradient>
<linearGradient id="paint12_linear_133_2" x1="721.503" y1="121.292" x2="721.503" y2="-18.9998" gradientUnits="userSpaceOnUse">
<stop stop-color="#AD232B"/>
<stop offset="0.53" stop-color="#800007"/>
<stop offset="1" stop-color="white"/>
</linearGradient>
<clipPath id="clip0_133_2">
<rect width="1440" height="5740" fill="white"/>
</clipPath>
<clipPath id="clip1_133_2">
<rect width="1448" height="460" fill="white" transform="translate(-4 379)"/>
</clipPath>
</defs>
</svg>
